<svg width="17" height="30" viewBox="0 0 17 30" fill="none" xmlns="http://www.w3.org/2000/svg">
<path d="M3.36867 0.593665L16.5691 13.8918C16.7258 14.0501 16.8365 14.2216 16.9013 14.4063C16.9671 14.591 17 14.7889 17 15C17 15.2111 16.9671 15.409 16.9013 15.5937C16.8365 15.7784 16.7258 15.9499 16.5691 16.1082L3.36866 29.4459C3.00307 29.8153 2.54608 30 1.99769 30C1.44931 30 0.979263 29.8021 0.587557 29.4063C0.195852 29.0106 1.26867e-07 28.5488 1.73e-07 28.0211C2.19134e-07 27.4934 0.195853 27.0317 0.587557 26.6359L12.1037 15L0.587559 3.36411C0.221968 2.99472 0.0391717 2.53984 0.0391718 1.99947C0.0391718 1.45805 0.235024 0.989443 0.626731 0.593665C1.01844 0.197888 1.47542 -1.3572e-06 1.9977 -1.31154e-06C2.51997 -1.26588e-06 2.97696 0.197888 3.36867 0.593665Z" fill="currentColor"/>
</svg>
