<svg width="17" height="30" viewBox="0 0 17 30" fill="none" xmlns="http://www.w3.org/2000/svg">
<path d="M13.6313 29.4063L0.430875 16.1082C0.274193 15.9499 0.163471 15.7784 0.0987093 15.5937C0.0329028 15.409 0 15.2111 0 15C0 14.7889 0.0329028 14.591 0.0987093 14.4063C0.163471 14.2216 0.274193 14.0501 0.430875 13.8918L13.6313 0.55409C13.9969 0.184696 14.4539 0 15.0023 0C15.5507 0 16.0207 0.197889 16.4124 0.593668C16.8041 0.989446 17 1.45119 17 1.97889C17 2.5066 16.8041 2.96834 16.4124 3.36412L4.89631 15L16.4124 26.6359C16.778 27.0053 16.9608 27.4602 16.9608 28.0005C16.9608 28.542 16.765 29.0106 16.3733 29.4063C15.9816 29.8021 15.5246 30 15.0023 30C14.48 30 14.023 29.8021 13.6313 29.4063Z" fill="currentColor"/>
</svg>
