<svg width="56" height="73" viewBox="0 0 56 73" fill="currentColor" xmlns="http://www.w3.org/2000/svg">
<path d="M23.0592 24.7062C23.9688 24.7062 24.7062 23.9688 24.7062 23.0592C24.7062 22.1495 23.9688 21.4121 23.0592 21.4121C22.1495 21.4121 21.4121 22.1495 21.4121 23.0592C21.4121 23.9688 22.1495 24.7062 23.0592 24.7062Z" fill="currentColor"/>
<path d="M32.941 24.7062C33.8506 24.7062 34.5881 23.9688 34.5881 23.0592C34.5881 22.1495 33.8506 21.4121 32.941 21.4121C32.0314 21.4121 31.2939 22.1495 31.2939 23.0592C31.2939 23.9688 32.0314 24.7062 32.941 24.7062Z" fill="currentColor"/>
<path d="M31.2949 8.23455H29.6478V6.58749C29.6478 5.68161 28.9066 4.94043 28.0007 4.94043C27.0949 4.94043 26.3537 5.68161 26.3537 6.58749V8.23455H24.7066C23.8007 8.23455 23.0596 8.97572 23.0596 9.88161C23.0596 10.7875 23.8007 11.5287 24.7066 11.5287H26.3537V13.1757C26.3537 14.0816 27.0949 14.8228 28.0007 14.8228C28.9066 14.8228 29.6478 14.0816 29.6478 13.1757V11.5287H31.2949C32.2007 11.5287 32.9419 10.7875 32.9419 9.88161C32.9419 8.97572 32.2007 8.23455 31.2949 8.23455Z" fill="currentColor"/>
<path d="M15.9928 36.9271L16.3387 37.3553C19.1881 40.8306 23.4375 42.8235 27.9834 42.8235C32.5293 42.8235 36.7787 40.8306 39.6281 37.3553L39.9905 36.9271C41.7693 34.7529 42.8728 32.1506 43.1693 29.4659C43.2187 29.1365 44.454 21.3953 44.454 18.1176V8.23529C44.454 3.68941 40.7646 0 36.2187 0H19.7646C15.2187 0 11.5293 3.68941 11.5293 8.23529V18.1176C11.5293 21.3953 12.7646 29.1365 12.7975 29.3835C13.1105 32.1341 14.214 34.7529 15.9928 36.9106V36.9271ZM40.1058 27.8518L30.6517 26.6659C28.8893 26.4518 27.094 26.4518 25.3317 26.6659L15.8775 27.8518C15.5975 26.04 15.0705 22.3671 14.8893 19.7647H41.094C40.8964 22.3506 40.3693 26.0071 40.1058 27.8518ZM37.454 34.8353L37.0917 35.2635C34.8681 37.9812 31.5575 39.5294 27.9834 39.5294C24.4093 39.5294 21.0987 37.9812 18.8752 35.2635L18.5293 34.8353C17.6234 33.7318 16.9646 32.4635 16.5364 31.0965L25.7434 29.9435C27.2258 29.7624 28.7411 29.7624 30.2399 29.9435L39.4469 31.0965C39.0187 32.4471 38.3599 33.7153 37.454 34.8353ZM14.8234 8.23529C14.8234 5.51765 17.0469 3.29412 19.7646 3.29412H36.2352C38.9528 3.29412 41.1764 5.51765 41.1764 8.23529V16.4706H14.8234V8.23529Z" fill="currentColor"/>
<path d="M49.3788 48.3911L38.2118 46.1511C37.7176 46.0523 37.2235 46.184 36.8282 46.497L30.1082 52.097C28.8894 53.1182 27.1106 53.1182 25.8918 52.097C25.2 51.5205 24.1624 51.6193 23.5694 52.3111C22.9929 53.0029 23.0753 54.0405 23.7835 54.6335C24.5576 55.2758 25.4471 55.6876 26.3694 55.9346C26.3694 55.9676 26.3694 55.984 26.3694 56.017V64.2523C26.3694 65.1582 27.1106 65.8993 28.0165 65.8993C28.9224 65.8993 29.6635 65.1582 29.6635 64.2523V56.017C29.6635 56.017 29.6635 55.9676 29.6635 55.9346C30.5859 55.704 31.4753 55.2758 32.2494 54.6335L38.36 49.544L48.7694 51.6193C51.0753 52.0805 52.7388 54.1229 52.7388 56.4617V67.5299C52.7388 68.4358 51.9976 69.177 51.0918 69.177H4.94118C4.03529 69.177 3.29412 68.4358 3.29412 67.5299V56.4617C3.29412 54.1064 4.95765 52.0805 7.26353 51.6193L18.2824 49.4123H29.6471C30.5529 49.4123 31.2941 48.6711 31.2941 47.7652C31.2941 46.8593 30.5529 46.1182 29.6471 46.1182H18.1176C18.0024 46.1182 17.9035 46.1182 17.7882 46.1511L6.62118 48.3911C2.78353 49.1652 0 52.5582 0 56.4617V67.5299C0 70.2476 2.22353 72.4711 4.94118 72.4711H51.0588C53.7765 72.4711 56 70.2476 56 67.5299V56.4617C56 52.5417 53.2165 49.1488 49.3788 48.3911Z" fill="currentColor"/>
<path d="M47.7646 62.5881C48.6705 62.5881 49.4116 61.8469 49.4116 60.941C49.4116 60.0351 48.6705 59.2939 47.7646 59.2939H41.1764C40.2705 59.2939 39.5293 60.0351 39.5293 60.941C39.5293 61.8469 40.2705 62.5881 41.1764 62.5881H47.7646Z" fill="currentColor"/>
</svg>
