<svg width="26" height="32" viewBox="0 0 26 32" fill="none" xmlns="http://www.w3.org/2000/svg">
<path d="M13 16.3057C13.8938 16.3057 14.6591 15.9861 15.2961 15.347C15.932 14.7089 16.25 13.9414 16.25 13.0446C16.25 12.1478 15.932 11.3798 15.2961 10.7406C14.6591 10.1025 13.8938 9.78344 13 9.78344C12.1062 9.78344 11.3414 10.1025 10.7055 10.7406C10.0685 11.3798 9.75 12.1478 9.75 13.0446C9.75 13.9414 10.0685 14.7089 10.7055 15.347C11.3414 15.9861 12.1062 16.3057 13 16.3057ZM13 28.2904C16.3042 25.2467 18.7552 22.4813 20.3531 19.9941C21.951 17.508 22.75 15.3002 22.75 13.3707C22.75 10.4085 21.8086 7.98274 19.9257 6.09345C18.044 4.20525 15.7354 3.26115 13 3.26115C10.2646 3.26115 7.95546 4.20525 6.07263 6.09345C4.19088 7.98274 3.25 10.4085 3.25 13.3707C3.25 15.3002 4.04896 17.508 5.64687 19.9941C7.24479 22.4813 9.69583 25.2467 13 28.2904ZM13 32C12.7833 32 12.5667 31.9592 12.35 31.8777C12.1333 31.7962 11.9438 31.6875 11.7812 31.5516C7.82708 28.0459 4.875 24.7918 2.925 21.7894C0.975 18.7858 0 15.9796 0 13.3707C0 9.29427 1.30704 6.04671 3.92113 3.62803C6.53413 1.20934 9.56042 0 13 0C16.4396 0 19.4659 1.20934 22.0789 3.62803C24.693 6.04671 26 9.29427 26 13.3707C26 15.9796 25.025 18.7858 23.075 21.7894C21.125 24.7918 18.1729 28.0459 14.2188 31.5516C14.0562 31.6875 13.8667 31.7962 13.65 31.8777C13.4333 31.9592 13.2167 32 13 32Z" fill="currentColor"/>
</svg>
