<svg width="80" height="72" viewBox="0 0 80 72" fill="currentColor" xmlns="http://www.w3.org/2000/svg">
<path d="M73.8 10.7998H5.4C2.43 10.7998 0 13.2298 0 16.1998V25.1998C0 28.1698 2.43 30.5998 5.4 30.5998H21.6C21.6 31.5898 22.41 32.3998 23.4 32.3998C24.39 32.3998 25.2 31.5898 25.2 30.5998V19.7998C25.2 18.8098 24.39 17.9998 23.4 17.9998C22.41 17.9998 21.6 18.8098 21.6 19.7998V26.9998H5.4C4.41 26.9998 3.6 26.1898 3.6 25.1998V16.1998C3.6 15.2098 4.41 14.3998 5.4 14.3998H73.8C74.79 14.3998 75.6 15.2098 75.6 16.1998V25.1998C75.6 26.1898 74.79 26.9998 73.8 26.9998H63C62.01 26.9998 61.2 27.8098 61.2 28.7998C61.2 29.7898 62.01 30.5998 63 30.5998H73.8C76.77 30.5998 79.2 28.1698 79.2 25.1998V16.1998C79.2 13.2298 76.77 10.7998 73.8 10.7998Z" fill="currentColor"/>
<path d="M53.9998 30.6C53.9998 31.59 54.8098 32.4 55.7998 32.4C56.7898 32.4 57.5998 31.59 57.5998 30.6V19.8C57.5998 18.81 56.7898 18 55.7998 18C54.8098 18 53.9998 18.81 53.9998 19.8V27H30.5998C29.6098 27 28.7998 27.81 28.7998 28.8C28.7998 29.79 29.6098 30.6 30.5998 30.6H53.9998Z" fill="currentColor"/>
<path d="M73.7996 34.2002C72.8096 34.2002 71.9996 35.0102 71.9996 36.0002V66.6002C71.9996 67.5902 71.1896 68.4002 70.1996 68.4002H8.99961C8.00961 68.4002 7.19961 67.5902 7.19961 66.6002V36.0002C7.19961 35.0102 6.38961 34.2002 5.39961 34.2002C4.40961 34.2002 3.59961 35.0102 3.59961 36.0002V66.6002C3.59961 69.5702 6.02961 72.0002 8.99961 72.0002H70.1996C73.1696 72.0002 75.5996 69.5702 75.5996 66.6002V36.0002C75.5996 35.0102 74.7896 34.2002 73.7996 34.2002Z" fill="currentColor"/>
<path d="M27.0002 9C27.9902 9 28.8002 8.19 28.8002 7.2V5.4C28.8002 4.41 29.6102 3.6 30.6002 3.6H48.6002C49.5902 3.6 50.4002 4.41 50.4002 5.4V7.2C50.4002 8.19 51.2102 9 52.2002 9C53.1902 9 54.0002 8.19 54.0002 7.2V5.4C54.0002 2.43 51.5702 0 48.6002 0H30.6002C27.6302 0 25.2002 2.43 25.2002 5.4V7.2C25.2002 8.19 26.0102 9 27.0002 9Z" fill="currentColor"/>
<path d="M27 45V52.2C27 53.19 27.81 54 28.8 54H34.2V59.4C34.2 60.39 35.01 61.2 36 61.2H43.2C44.19 61.2 45 60.39 45 59.4C45 58.41 44.19 57.6 43.2 57.6H37.8V52.2C37.8 51.21 36.99 50.4 36 50.4H30.6V46.8H36C36.99 46.8 37.8 45.99 37.8 45V39.6H41.4V45C41.4 45.99 42.21 46.8 43.2 46.8H48.6V50.4H43.2C42.21 50.4 41.4 51.21 41.4 52.2C41.4 53.19 42.21 54 43.2 54H50.4C51.39 54 52.2 53.19 52.2 52.2V45C52.2 44.01 51.39 43.2 50.4 43.2H45V37.8C45 36.81 44.19 36 43.2 36H36C35.01 36 34.2 36.81 34.2 37.8V43.2H28.8C27.81 43.2 27 44.01 27 45Z" fill="currentColor"/>
</svg>
