<svg width="38" height="38" viewBox="0 0 38 38" fill="none" xmlns="http://www.w3.org/2000/svg">
<path fill-rule="evenodd" clip-rule="evenodd" d="M5.38338 4.36087C5.54177 4.9203 6.05838 5.33324 6.66674 5.33324C7.40006 5.33324 8.00005 4.73325 8.00005 3.99993V1.33331C8.00005 0.59999 7.40006 0 6.66674 0C5.93342 0 5.33343 0.59999 5.33343 1.33331V1.62341L3.02662 2.20011C1.23998 2.65344 0 4.24008 0 6.08005V13.3333C0 18.7617 4.0798 23.2583 9.33317 23.9168V30.6662C9.33317 34.3462 12.3198 37.3328 15.9997 37.3328H26.6662C30.3461 37.3328 33.3328 34.3462 33.3328 30.6662V22.4986C35.6338 21.907 37.333 19.8194 37.333 17.3331C37.333 14.3865 34.9464 11.9999 31.9997 11.9999C29.0531 11.9999 26.6665 14.3865 26.6665 17.3331C26.6665 19.8192 28.3654 21.9067 30.6661 22.4984V30.6662C30.6661 32.8662 28.8662 34.6662 26.6662 34.6662H15.9997C13.7998 34.6662 11.9998 32.8662 11.9998 30.6662V23.9168C17.2532 23.2583 21.333 18.7617 21.333 13.3333V6.08005C21.333 4.24008 20.093 2.64011 18.3064 2.20011L15.9995 1.62341V1.33331C15.9995 0.59999 15.3995 0 14.6662 0C13.9329 0 13.3329 0.59999 13.3329 1.33331V3.99993C13.3329 4.73325 13.9329 5.33324 14.6662 5.33324C15.2746 5.33324 15.7912 4.9203 15.9496 4.36087L17.653 4.78674C18.253 4.9334 18.6663 5.46672 18.6663 6.08005V12.7406C17.6187 13.6411 14.4766 16.0129 10.6529 16.0129C6.87354 16.0129 3.74261 13.6697 2.66662 12.7572V6.08005C2.66662 5.46672 3.07995 4.9334 3.67994 4.78674L5.38338 4.36087ZM10.6665 21.3331C13.964 21.3331 16.8 19.3308 18.0232 16.4774C16.1948 17.5775 13.6195 18.6795 10.6396 18.6795L10.6663 18.6662C7.70151 18.6662 5.13555 17.5703 3.30801 16.4733C4.53027 19.3289 7.36741 21.3331 10.6665 21.3331ZM29.3331 17.3331C29.3331 15.8665 30.5331 14.6665 31.9997 14.6665C33.4664 14.6665 34.6664 15.8665 34.6664 17.3331C34.6664 18.7998 33.4664 19.9998 31.9997 19.9998C30.5331 19.9998 29.3331 18.7998 29.3331 17.3331Z" fill="white"/>
</svg>
