<svg width="27" height="41" viewBox="0 0 27 41" fill="none" xmlns="http://www.w3.org/2000/svg">
<path fill-rule="evenodd" clip-rule="evenodd" d="M22.0602 40.0478H4.41205C1.98542 40.0478 0 38.1169 0 35.757V4.29084C0 1.93088 1.98542 0 4.41205 0H22.0602C24.4869 0 26.4723 1.93088 26.4723 4.29084V35.757C26.4723 38.1169 24.4869 40.0478 22.0602 40.0478ZM4.41205 2.86056C3.60317 2.86056 2.94136 3.50418 2.94136 4.29084V5.72121H23.5309V4.29084C23.5309 3.50418 22.8691 2.86056 22.0602 2.86056H4.41205ZM23.5309 8.58177H2.94136V31.4663H23.5309V8.58177ZM23.5309 34.3269H2.94136V35.757C2.94136 36.5436 3.60317 37.1872 4.41205 37.1872H22.0602C22.8691 37.1872 23.5309 36.5436 23.5309 35.757V34.3269ZM14.7066 15.7333H17.648C18.4568 15.7333 19.1186 16.3769 19.1186 17.1635C19.1186 17.9502 18.4568 18.5938 17.648 18.5938H14.7066V21.4544C14.7066 22.241 14.0448 22.8846 13.2359 22.8846C12.427 22.8846 11.7652 22.241 11.7652 21.4544V18.5938H8.82387C8.015 18.5938 7.35319 17.9502 7.35319 17.1635C7.35319 16.3769 8.015 15.7333 8.82387 15.7333H11.7652V12.8727C11.7652 12.086 12.427 11.4424 13.2359 11.4424C14.0448 11.4424 14.7066 12.086 14.7066 12.8727V15.7333ZM10.295 28.6057H7.35363C6.54476 28.6057 5.88295 27.962 5.88295 27.1754C5.88295 26.3887 6.54476 25.7451 7.35363 25.7451H10.295C11.1039 25.7451 11.7657 26.3887 11.7657 27.1754C11.7657 27.962 11.1039 28.6057 10.295 28.6057ZM16.1777 28.6057H19.1191C19.928 28.6057 20.5898 27.962 20.5898 27.1754C20.5898 26.3887 19.928 25.7451 19.1191 25.7451H16.1777C15.3688 25.7451 14.707 26.3887 14.707 27.1754C14.707 27.962 15.3688 28.6057 16.1777 28.6057Z" fill="white"/>
</svg>
