<svg width="45" height="36" viewBox="0 0 45 36" fill="none" xmlns="http://www.w3.org/2000/svg">
<path fill-rule="evenodd" clip-rule="evenodd" d="M24.2359 35.298C24.2385 35.298 24.2411 35.298 24.2438 35.298H24.228C24.2306 35.298 24.2333 35.298 24.2359 35.298ZM8.04934 19.2201L23.1088 34.8246C23.4065 35.1226 23.8131 35.2958 24.2359 35.298C24.6587 35.2958 25.0653 35.1226 25.3629 34.8246L41.0471 18.5886C45.177 14.3126 45.1297 7.41747 40.921 3.20463C37.1063 -0.629531 30.943 -1.07133 26.6082 2.17903L24.2438 3.96199L21.8793 2.17903C17.5445 -1.07133 11.3812 -0.645309 7.55082 3.18885C4.1059 6.65013 3.44877 11.9221 5.61439 16.0644H1.57629C0.709332 16.0644 0 16.7744 0 17.6422C0 18.51 0.709332 19.2201 1.57629 19.2201H8.04934ZM12.4242 19.2201L24.228 31.4323L38.7772 16.3796C41.7249 13.3344 41.6776 8.42729 38.6826 5.42939C35.9556 2.69972 31.5735 2.38415 28.484 4.70358L25.1738 7.19657C24.6063 7.62259 23.8497 7.62259 23.2822 7.19657L19.972 4.70358C18.5849 3.6622 16.9455 3.15729 15.3062 3.15729C13.2885 3.15729 11.2866 3.93044 9.7734 5.42939C6.87974 8.32589 6.75244 13.0046 9.39148 16.0644H14.6911L17.4496 9.16919C17.7018 8.55383 18.3165 8.17514 18.9628 8.17514C19.6249 8.19092 20.2081 8.63272 20.413 9.24808L23.9439 19.8354L25.3941 16.9322C25.6621 16.3957 26.2138 16.0644 26.797 16.0644H31.5259C32.3928 16.0644 33.1022 16.7744 33.1022 17.6422C33.1022 18.51 32.3928 19.2201 31.5259 19.2201H27.7743L25.0631 24.6636C24.7951 25.2001 24.2434 25.5314 23.6602 25.5314H23.6444H23.5341C22.9035 25.4841 22.3518 25.0581 22.1469 24.4585L18.7737 14.3445L17.2131 18.226C16.9767 18.8256 16.3935 19.2201 15.7472 19.2201H12.4242Z" fill="white"/>
</svg>
