<svg width="33" height="42" viewBox="0 0 33 42" fill="none" xmlns="http://www.w3.org/2000/svg">
<path fill-rule="evenodd" clip-rule="evenodd" d="M1.48097 41.4054H31.1003C31.9148 41.4054 32.5813 40.7399 32.5813 39.9266V1.47876C32.5813 0.665443 31.9148 0 31.1003 0H1.48097C0.666435 0 0 0.665443 0 1.47876V39.9266C0 40.7399 0.666435 41.4054 1.48097 41.4054ZM29.6193 38.4478H2.96193V2.95753H29.6193V38.4478ZM7.40501 23.6602H25.1766C25.9911 23.6602 26.6576 22.9948 26.6576 22.1814C26.6576 21.3681 25.9911 20.7027 25.1766 20.7027H7.40501C6.59048 20.7027 5.92405 21.3681 5.92405 22.1814C5.92405 22.9948 6.59048 23.6602 7.40501 23.6602ZM25.1766 29.575H7.40501C6.59048 29.575 5.92405 28.9095 5.92405 28.0962C5.92405 27.2829 6.59048 26.6174 7.40501 26.6174H25.1766C25.9911 26.6174 26.6576 27.2829 26.6576 28.0962C26.6576 28.9095 25.9911 29.575 25.1766 29.575ZM7.40501 35.4904H19.2527C20.0673 35.4904 20.7337 34.825 20.7337 34.0116C20.7337 33.1983 20.0673 32.5329 19.2527 32.5329H7.40501C6.59048 32.5329 5.92405 33.1983 5.92405 34.0116C5.92405 34.825 6.59048 35.4904 7.40501 35.4904ZM14.1949 11.8228L13.1508 12.8653C12.8694 13.1462 12.7213 13.5159 12.7213 13.9152C12.7213 14.3144 12.8694 14.6841 13.1508 14.9651C13.7284 15.5418 14.6614 15.5418 15.239 14.9651L16.2904 13.9152L14.1949 11.8228ZM18.386 11.8228L16.2904 9.7303L17.3419 8.68036C17.6216 8.40112 17.989 8.25334 18.386 8.25153C18.7831 8.25335 19.1505 8.40113 19.4301 8.68036C19.7115 8.96132 19.8596 9.33101 19.8596 9.73028C19.8596 10.1295 19.7115 10.4992 19.4301 10.7802L18.386 11.8228ZM11.0626 17.0502C11.9216 17.9226 13.062 18.3515 14.2023 18.3515C15.3426 18.3515 16.483 17.9078 17.3419 17.0502L21.5331 12.8653C22.3772 12.0224 22.8363 10.9133 22.8363 9.73028C22.8363 8.54727 22.3772 7.4382 21.5331 6.5953C19.8596 4.9243 16.9273 4.9243 15.2538 6.5953L11.0626 10.7802C10.2185 11.6231 9.7594 12.7322 9.7594 13.9152C9.7594 15.0982 10.2185 16.2073 11.0626 17.0502Z" fill="white"/>
</svg>
