<svg width="43" height="39" viewBox="0 0 43 39" fill="none" xmlns="http://www.w3.org/2000/svg">
<path fill-rule="evenodd" clip-rule="evenodd" d="M15.0301 8.92852H27.0542C27.8808 8.92852 28.5572 8.25888 28.5572 7.44043V5.95245H37.5751C38.4018 5.95245 39.0781 6.62209 39.0781 7.44053V31.2499C39.0781 32.0684 38.4018 32.738 37.5751 32.738H4.50901C3.68236 32.738 3.00601 32.0684 3.00601 31.2499V7.44053C3.00601 6.62209 3.68236 5.95245 4.50901 5.95245H13.5271V7.44043C13.5271 8.25888 14.2035 8.92852 15.0301 8.92852ZM13.7862 2.97627C14.4087 1.24672 16.0825 0 18.0362 0H24.0482C26.0018 0 27.6757 1.24672 28.2981 2.97627H37.5751C40.0551 2.97627 42.0841 4.98519 42.0841 7.44053V31.2499C42.0841 33.7053 40.0551 35.7142 37.5751 35.7142H36.0718V37.202C36.0718 38.0205 35.3955 38.6901 34.5688 38.6901C33.7422 38.6901 33.0658 38.0205 33.0658 37.202V35.7142H9.01822V37.202C9.01822 38.0205 8.34187 38.6901 7.51521 38.6901C6.68856 38.6901 6.01221 38.0205 6.01221 37.202V35.7142H4.50901C2.02906 35.7142 0 33.7053 0 31.2499V7.44053C0 4.98519 2.02906 2.97627 4.50901 2.97627H13.7862ZM25.5512 5.95235H16.5331V4.46426C16.5331 3.64581 17.2095 2.97617 18.0362 2.97617H24.0482C24.8748 2.97617 25.5512 3.64581 25.5512 4.46426V5.95235ZM24.0478 29.7615H18.0358C17.2091 29.7615 16.5328 29.0918 16.5328 28.2734V25.2972H13.5268C12.7001 25.2972 12.0238 24.6276 12.0238 23.8091V17.8568C12.0238 17.0383 12.7001 16.3687 13.5268 16.3687H16.5328V13.3925C16.5328 12.5741 17.2091 11.9044 18.0358 11.9044H24.0478C24.8744 11.9044 25.5508 12.5741 25.5508 13.3925V16.3687H28.5568C29.3835 16.3687 30.0598 17.0383 30.0598 17.8568V23.8091C30.0598 24.6276 29.3835 25.2972 28.5568 25.2972H25.5508V28.2734C25.5508 29.0918 24.8744 29.7615 24.0478 29.7615ZM19.5388 26.7853H22.5448V23.8091C22.5448 22.9907 23.2211 22.321 24.0478 22.321H27.0538V19.3449H24.0478C23.2211 19.3449 22.5448 18.6752 22.5448 17.8568V14.8806H19.5388V17.8568C19.5388 18.6752 18.8624 19.3449 18.0358 19.3449H15.0298V22.321H18.0358C18.8624 22.321 19.5388 22.9907 19.5388 23.8091V26.7853Z" fill="white"/>
</svg>
