<svg width="34" height="40" viewBox="0 0 34 40" fill="none" xmlns="http://www.w3.org/2000/svg">
<path fill-rule="evenodd" clip-rule="evenodd" d="M12.3824 19.9057C13.6261 20.6581 15.0789 21.0905 16.63 21.0905C18.1811 21.0905 19.6339 20.6581 20.8776 19.9057L21.4823 20.2119L16.6302 27.1087L11.778 20.2118L12.3824 19.9057ZM10.1257 17.9063C8.9927 16.4645 8.31501 14.6386 8.31501 12.6543V8.43622C8.31501 3.78224 12.0429 0 16.63 0C21.2171 0 24.945 3.78224 24.945 8.43622V12.6543C24.945 14.6386 24.2673 16.4645 23.1343 17.9063L29.4351 21.0909C31.7633 22.272 33.26 24.7466 33.26 27.3759V37.9634C33.26 38.7367 32.6364 39.3694 31.8742 39.3694H1.38583C0.623626 39.3694 0 38.7367 0 37.9634V27.3759C0 24.7466 1.4967 22.272 3.8249 21.0909L10.1257 17.9063ZM11.0932 8.16176C11.2341 5.18202 13.658 2.81207 16.63 2.81207C19.6353 2.81207 22.0802 5.23544 22.1708 8.26218C18.0105 7.71573 16.2283 6.04577 16.2283 6.04577C15.9096 5.72238 15.48 5.58178 15.0227 5.65208C14.5792 5.72238 14.205 6.00359 14.011 6.41134L13.0271 8.40791C12.5374 8.36895 11.8682 8.29625 11.0932 8.16176ZM11.0867 11.0088C12.6859 11.2534 13.793 11.2622 13.8586 11.2622C14.3852 11.2622 14.8564 10.9669 15.092 10.4888L15.7572 9.13905C17.0139 9.86941 19.1085 10.7633 22.1734 11.1201V12.6543C22.1734 15.7617 19.6927 18.2785 16.63 18.2785C13.5673 18.2785 11.0867 15.7617 11.0867 12.6543V11.0088ZM17.7527 30.3426L23.9906 21.4822L28.1879 23.6077C29.5876 24.3248 30.4884 25.8012 30.4884 27.39V36.5714H2.77167V27.39C2.77167 25.8152 3.67246 24.3248 5.07216 23.6077L9.26962 21.4821L15.5076 30.3426C15.7709 30.7082 16.1867 30.9331 16.6302 30.9331C17.0736 30.9331 17.5032 30.7082 17.7527 30.3426ZM6.9294 30.9329H9.70107C10.4633 30.9329 11.0869 30.3002 11.0869 29.5269C11.0869 28.7535 10.4633 28.1208 9.70107 28.1208H6.9294C6.16719 28.1208 5.54356 28.7535 5.54356 29.5269C5.54356 30.3002 6.16719 30.9329 6.9294 30.9329Z" fill="white"/>
</svg>
