<svg width="55" height="72" viewBox="0 0 55 72" fill="currentColor" xmlns="http://www.w3.org/2000/svg">
<path d="M12.9414 41.2644C13.8311 41.2644 14.559 40.5365 14.559 39.6468C14.559 38.7571 13.8311 38.0291 12.9414 38.0291C11.3237 38.0291 9.4796 37.4468 7.73254 36.4438C9.94872 34.6806 11.5178 32.335 12.6017 29.8277C12.9252 32.4806 13.9928 34.9879 15.7075 37.0909L16.0472 37.5115C18.8458 40.9247 23.0193 42.8821 27.484 42.8821C31.9487 42.8821 36.1222 40.9247 38.9208 37.5115L39.2767 37.0909C41.0075 34.9879 42.0752 32.4482 42.3825 29.8438C43.4664 32.3512 45.0355 34.6806 47.2517 36.4438C45.5046 37.4629 43.6605 38.0291 42.0428 38.0291C41.1531 38.0291 40.4252 38.7571 40.4252 39.6468C40.4252 40.5365 41.1531 41.2644 42.0428 41.2644C45.0031 41.2644 48.3355 39.9541 51.1502 37.6732C51.5708 37.3335 51.7973 36.7997 51.7487 36.2659C51.7002 35.7321 51.3928 35.2468 50.9075 34.9879C44.0164 31.2188 43.6605 22.0306 43.6605 20.235V8.91148C43.6605 4.44677 40.037 0.823242 35.5723 0.823242H19.412C14.9472 0.823242 11.3237 4.44677 11.3237 8.91148V20.235C11.3237 22.0306 10.9678 31.2188 4.07666 34.9879C3.60754 35.2468 3.28401 35.7321 3.23548 36.2659C3.18695 36.7997 3.41342 37.3335 3.83401 37.6732C6.64872 39.9541 9.9649 41.2644 12.9414 41.2644ZM30.1046 27.0129C28.3737 26.8027 26.6105 26.8027 24.8796 27.0129L15.5943 28.1777C15.3193 26.3982 14.8017 22.7909 14.6237 20.235H40.3605C40.1664 22.7747 39.6487 26.3659 39.3899 28.1777L30.1046 27.0129ZM36.7855 35.0203L36.4296 35.4409C34.2458 38.11 30.9943 39.6306 27.484 39.6306C23.9737 39.6306 20.7222 38.11 18.5384 35.4409L18.1987 35.0203C17.309 33.9365 16.662 32.6909 16.2414 31.3482L25.284 30.2159C26.7399 30.0379 28.2281 30.0379 29.7002 30.2159L38.7428 31.3482C38.3223 32.6747 37.6752 33.9203 36.7855 35.0203ZM14.559 8.91148C14.559 6.24236 16.7428 4.05854 19.412 4.05854H35.5884C38.2575 4.05854 40.4414 6.24236 40.4414 8.91148V16.9997H14.559V8.91148Z" fill="currentColor"/>
<path d="M22.6469 25.0878C23.5403 25.0878 24.2646 24.3636 24.2646 23.4702C24.2646 22.5768 23.5403 21.8525 22.6469 21.8525C21.7535 21.8525 21.0293 22.5768 21.0293 23.4702C21.0293 24.3636 21.7535 25.0878 22.6469 25.0878Z" fill="currentColor"/>
<path d="M32.353 25.0878C33.2464 25.0878 33.9706 24.3636 33.9706 23.4702C33.9706 22.5768 33.2464 21.8525 32.353 21.8525C31.4596 21.8525 30.7354 22.5768 30.7354 23.4702C30.7354 24.3636 31.4596 25.0878 32.353 25.0878Z" fill="currentColor"/>
<path d="M30.7352 8.91108H29.1176V7.29343C29.1176 6.40372 28.3896 5.67578 27.4999 5.67578C26.6102 5.67578 25.8823 6.40372 25.8823 7.29343V8.91108H24.2646C23.3749 8.91108 22.647 9.63902 22.647 10.5287C22.647 11.4184 23.3749 12.1464 24.2646 12.1464H25.8823V13.764C25.8823 14.6537 26.6102 15.3817 27.4999 15.3817C28.3896 15.3817 29.1176 14.6537 29.1176 13.764V12.1464H30.7352C31.6249 12.1464 32.3529 11.4184 32.3529 10.5287C32.3529 9.63902 31.6249 8.91108 30.7352 8.91108Z" fill="currentColor"/>
<path d="M48.4971 48.3495L37.5294 46.1495C37.0603 46.0525 36.5588 46.1819 36.1868 46.4892C35.8147 46.7966 35.5882 47.2495 35.5882 47.7348V52.5878C35.5882 54.3672 34.1324 55.8231 32.3529 55.8231H22.6471C20.8676 55.8231 19.4118 54.3672 19.4118 52.5878C19.4118 51.6981 18.6838 50.9701 17.7941 50.9701C16.9044 50.9701 16.1765 51.6981 16.1765 52.5878C16.1765 56.1628 19.0721 59.0584 22.6471 59.0584H32.3529C35.9279 59.0584 38.8235 56.1628 38.8235 52.5878V49.7084L47.8662 51.5201C50.1309 51.9731 51.7647 53.979 51.7647 56.276V67.1466C51.7647 68.0363 51.0368 68.7642 50.1471 68.7642H4.85294C3.96324 68.7642 3.23529 68.0363 3.23529 67.1466V56.276C3.23529 53.9628 4.86912 51.9731 7.13382 51.5201L17.9559 49.3525H30.7353C31.625 49.3525 32.3529 48.6245 32.3529 47.7348C32.3529 46.8451 31.625 46.1172 30.7353 46.1172H17.7941C17.6809 46.1172 17.5838 46.1172 17.4706 46.1495L6.50294 48.3495C2.73382 49.1098 0 52.4422 0 56.276V67.1466C0 69.8157 2.18382 71.9995 4.85294 71.9995H50.1471C52.8162 71.9995 55 69.8157 55 67.1466V56.276C55 52.426 52.2662 49.0937 48.4971 48.3495Z" fill="currentColor"/>
<path d="M46.912 62.2939C47.8017 62.2939 48.5296 61.5659 48.5296 60.6762C48.5296 59.7865 47.8017 59.0586 46.912 59.0586H40.4414C39.5517 59.0586 38.8237 59.7865 38.8237 60.6762C38.8237 61.5659 39.5517 62.2939 40.4414 62.2939H46.912Z" fill="currentColor"/>
</svg>
