<svg width="20" height="20" viewBox="0 0 20 20" fill="none" xmlns="http://www.w3.org/2000/svg">
<path d="M8.34917 11.4558L6.2376 9.34427C6.05962 9.16628 5.84118 9.07729 5.58229 9.07729C5.3234 9.07729 5.09688 9.17437 4.90271 9.36854C4.72472 9.54653 4.63573 9.77306 4.63573 10.0481C4.63573 10.3232 4.72472 10.5497 4.90271 10.7277L7.66958 13.4946C7.84757 13.6726 8.0741 13.7616 8.34917 13.7616C8.62424 13.7616 8.85076 13.6726 9.02875 13.4946L14.5382 7.9851C14.7162 7.80712 14.8052 7.58868 14.8052 7.32979C14.8052 7.0709 14.7081 6.84438 14.514 6.65021C14.336 6.47222 14.1094 6.38323 13.8344 6.38323C13.5593 6.38323 13.3328 6.47222 13.1548 6.65021L8.34917 11.4558ZM9.70833 19.4167C8.36535 19.4167 7.10326 19.1617 5.92208 18.6516C4.7409 18.1423 3.71344 17.4507 2.83969 16.577C1.96594 15.7032 1.27438 14.6758 0.765017 13.4946C0.255006 12.3134 0 11.0513 0 9.70833C0 8.36535 0.255006 7.10326 0.765017 5.92208C1.27438 4.7409 1.96594 3.71344 2.83969 2.83969C3.71344 1.96594 4.7409 1.27406 5.92208 0.764046C7.10326 0.254682 8.36535 0 9.70833 0C11.0513 0 12.3134 0.254682 13.4946 0.764046C14.6758 1.27406 15.7032 1.96594 16.577 2.83969C17.4507 3.71344 18.1423 4.7409 18.6516 5.92208C19.1617 7.10326 19.4167 8.36535 19.4167 9.70833C19.4167 11.0513 19.1617 12.3134 18.6516 13.4946C18.1423 14.6758 17.4507 15.7032 16.577 16.577C15.7032 17.4507 14.6758 18.1423 13.4946 18.6516C12.3134 19.1617 11.0513 19.4167 9.70833 19.4167Z" fill="#48ABC8"/>
</svg>
