<svg width="53" height="72" viewBox="0 0 53 72" fill="currentColor" xmlns="http://www.w3.org/2000/svg">
<path d="M49.2883 27.2393L41.9122 18.7812C41.1306 17.8814 40.7072 16.7362 40.7072 15.5583V12.8262C42.5961 12.1554 43.9638 10.3231 43.9638 8.19632V4.90798C43.9638 2.20859 41.7656 0 39.0789 0H13.0263C10.3396 0 8.14145 2.20859 8.14145 4.90798V8.17996C8.14145 10.8793 10.3396 13.0879 13.0263 13.0879H32.5658C33.4613 13.0879 34.1941 12.3517 34.1941 11.4519C34.1941 10.5521 33.4613 9.81595 32.5658 9.81595H13.0263C12.1308 9.81595 11.398 9.07975 11.398 8.17996V4.90798C11.398 4.00818 12.1308 3.27198 13.0263 3.27198H39.0789C39.9745 3.27198 40.7072 4.00818 40.7072 4.90798V8.17996C40.7072 9.07975 39.9745 9.81595 39.0789 9.81595C38.1834 9.81595 37.4507 10.5521 37.4507 11.4519V15.5419C37.4507 17.5215 38.1671 19.4356 39.4697 20.9243L46.8459 29.3824C48.1485 30.8712 48.865 32.7853 48.865 34.7648V67.0757C48.865 67.9755 48.1322 68.7117 47.2367 68.7117H4.88487C3.98931 68.7117 3.25658 67.9755 3.25658 67.0757V34.7648C3.25658 32.7853 3.97303 30.8712 5.27566 29.3824L14.2638 19.0757C14.85 18.3885 14.7849 17.3579 14.1173 16.7689C13.4334 16.18 12.4076 16.2454 11.8214 16.9162L2.81694 27.2393C0.993257 29.3333 0 32 0 34.7812V67.092C0 69.7914 2.19819 72 4.88487 72H47.2204C49.9071 72 52.1053 69.7914 52.1053 67.092V34.7648C52.1053 31.9836 51.0957 29.317 49.2883 27.2229V27.2393Z" fill="currentColor"/>
<path d="M6.63135 34.7898V60.895C6.63135 61.7924 7.35964 62.5266 8.24977 62.5266H43.855C44.7452 62.5266 45.4735 61.7924 45.4735 60.895V34.7898C45.4735 33.8924 44.7452 33.1582 43.855 33.1582H8.24977C7.35964 33.1582 6.63135 33.8924 6.63135 34.7898ZM9.86819 36.4214H42.2366V59.2635H9.86819V36.4214Z" fill="currentColor"/>
<path d="M33.3474 46.2312H28.2316V41.3996C28.2316 40.5138 27.4642 39.7891 26.5263 39.7891C25.5884 39.7891 24.8211 40.5138 24.8211 41.3996V46.2312H19.7053C18.7674 46.2312 18 46.9559 18 47.8417C18 48.7275 18.7674 49.4522 19.7053 49.4522H24.8211V54.2838C24.8211 55.1696 25.5884 55.8943 26.5263 55.8943C27.4642 55.8943 28.2316 55.1696 28.2316 54.2838V49.4522H33.3474C34.2853 49.4522 35.0526 48.7275 35.0526 47.8417C35.0526 46.9559 34.2853 46.2312 33.3474 46.2312Z" fill="currentColor"/>
</svg>
